<?xml version="1.0" encoding="UTF-8"?>
<svg id="_レイヤー_2" data-name="レイヤー 2" xmlns="http://www.w3.org/2000/svg" viewBox="0 0 2001.91 648">
  <path d="M110.5,274.5c99,173-17.5,252.5-67.5,172.5,31,103,219.5,65.71,219.5-19.5,0-103-97-132-152-153Z" style="fill: #fff; stroke: #000; stroke-miterlimit: 10; stroke-width: 12px;"/>
  <path d="M65.5,341.5C27.5,341.5,.5,377.5,.5,412.5c0,66,63,128.73,141.5,128.73,96.5,0,150.5-61.73,150.5-133.73,0-48-29-74-29-74-5-44-60-63-60-84,0-11,26-7,32-22,2,13,16,24,30,27v48h27v-13h-12v-10h12v-12h-12v-13c45,0,53-82-10-82C216.5,58.5,38.5,104.5,38.5,212.5c0,157,209,76,209,200,0,108-202,103-202,6,0-54,75-35,48,15,39-10,42-92-28-92Z" style="stroke: #000; stroke-miterlimit: 10;"/>
  <path d="M241.5,313.5c-3-19-50-36-50-64,0-17,25.47-20.65,29-23,6-4,15-18,15-29-1.31-1.03-5.85-3.15-9-4-.99-12.86-26.41-36.7-51-37-.78-14.53-5.09-29.95-8-35-18,15-26,28-31,47-32,27-31,79-19,101,36,11,90,23,124,44Z" style="fill: #fff; stroke: #fff; stroke-miterlimit: 10;"/>
  <path d="M127.5,156.5l-1,7.51c-29,20.49-34,63.49-25,95.49-33-25-19.41-86.67,26-103Z" style="fill: #fff; stroke: #fff; stroke-miterlimit: 10;"/>
  <path d="M186.5,179.5c11-3,21,5,23,15-12,3-22-3-23-15Z" style="stroke: #000; stroke-miterlimit: 10;"/>
  <circle cx="275" cy="214" r="21.5" style="fill: #fff; stroke: #fff; stroke-miterlimit: 10;"/>
  <g>
    <path d="M472.02,346.44c-44.8-16.16-65.37-37.09-65.37-77.85,0-44.44,36.72-81.16,97.32-81.16,50.31,0,83.73,17.99,99.52,56.92l-40.03,28.64c-9.92-26.81-30.85-40.4-57.66-40.4-30.85,0-46.64,15.06-46.64,33.42,0,15.42,10.65,25.71,36.36,34.15l44.07,14.32c45.17,15.42,71.98,40.4,71.98,84.46,0,55.82-37.83,88.87-105.4,88.87-57.29,0-95.85-28.64-111.27-74.55l41.13-27.54c12.12,33.79,40.4,55.45,70.14,55.45,32.32,0,49.94-14.69,49.94-36.72,0-20.56-12.49-32.68-42.6-43.7l-41.5-14.32Z"/>
    <path d="M843.66,441.18c-21.67,28.64-47.74,44.07-92.18,44.07-61.33,0-101.72-41.5-101.72-106.5,0-60.23,36.72-106.13,100.25-106.13,58.76,0,95.48,41.13,95.48,103.93v5.51l-147.63,18.73c4.04,27.91,27.54,42.97,56.92,42.97,26.07,0,50.31-12.12,63.16-34.15l25.71,31.58Zm-47.37-90.71c-2.2-23.13-20.57-37.09-46.64-37.09-30.11,0-50.68,17.63-52.51,50.31l99.15-13.22Z"/>
    <path d="M1061.43,454.4c-19.46,20.56-42.23,30.85-80.42,30.85-56.55,0-106.5-35.99-106.5-106.5,0-66.47,45.54-106.13,106.5-106.13,34.89,0,58.76,9.18,77.85,26.81l-17.63,41.13c-12.49-17.63-32.32-25.71-53.25-25.71-29.01,0-60.59,19.83-60.59,63.9s30.11,64.63,61.7,64.63c20.2,0,42.97-9.55,55.08-27.17l17.26,38.19Z"/>
    <path d="M1088.97,379.12c0-64.63,40.4-106.5,104.29-106.5s103.93,41.86,103.93,106.5-39.29,106.13-103.93,106.13-104.29-41.87-104.29-106.13Zm155.34,0c0-40.4-20.2-64.63-51.05-64.63s-51.41,24.24-51.41,64.63,21.67,64.63,51.41,64.63,51.05-24.24,51.05-64.63Z"/>
    <path d="M1473.83,480.84v-128.53c0-24.24-15.42-37.82-36.36-37.82s-40.4,11.75-47.01,33.05v133.31h-52.15v-203.81h47.74v26.07c9.55-18.73,32.32-30.48,66.1-30.48,44.44,0,74.18,31.21,74.18,72.35v135.88h-52.51Z"/>
    <path d="M1713.27,480.84v-128.53c0-24.24-15.42-37.82-36.36-37.82s-40.4,11.75-47.01,33.05v133.31h-52.15v-203.81h47.74v26.07c9.55-18.73,32.32-30.48,66.1-30.48,44.44,0,74.18,31.21,74.18,72.35v135.88h-52.51Z"/>
    <path d="M2000.08,441.18c-21.67,28.64-47.74,44.07-92.18,44.07-61.33,0-101.72-41.5-101.72-106.5,0-60.23,36.72-106.13,100.25-106.13,58.76,0,95.48,41.13,95.48,103.93v5.51l-147.63,18.73c4.04,27.91,27.54,42.97,56.92,42.97,26.07,0,50.31-12.12,63.16-34.15l25.71,31.58Zm-47.37-90.71c-2.2-23.13-20.57-37.09-46.64-37.09-30.11,0-50.68,17.63-52.51,50.31l99.15-13.22Z"/>
  </g>
</svg>