<?xml version="1.0" encoding="UTF-8"?>
<svg id="VLC_security_Lab" xmlns="http://www.w3.org/2000/svg" viewBox="0 0 1000 585.08">
  <defs>
    <style>
      .cls-1 {
        fill: #52687d;
      }

      .cls-2 {
        fill: #9e925c;
      }
    </style>
  </defs>
  <g>
    <polygon class="cls-2" points="136.43 360.77 204.41 292.78 136.43 224.34 136.43 360.77"/>
    <polygon class="cls-1" points="391.88 292.54 439.28 245.16 439.28 173.13 319.89 292.54 439.28 411.95 439.28 339.95 391.88 292.54"/>
    <polygon class="cls-1" points="330.37 136.43 282.97 183.82 235.61 136.43 163.56 136.43 282.96 255.82 402.37 136.43 330.37 136.43"/>
    <polygon class="cls-1" points="282.94 401.24 330.36 448.66 402.33 448.66 282.93 329.26 163.52 448.66 235.55 448.66 282.94 401.24"/>
  </g>
  <g>
    <g>
      <g>
        <path class="cls-1" d="M585.62,138.74l-35.22,94.91-35.23-94.91h-32.73l54.48,135.73h26.19l54.49-135.73h-31.97Z"/>
        <path class="cls-1" d="M716.23,246.55h-46.89v-107.82h-29.65v134.77h102.54c.68,0,1.03-.83.54-1.31l-25.02-25.01c-.41-.41-.95-.63-1.53-.63Z"/>
        <path class="cls-1" d="M844.71,232.69c-10.59,9.62-20.03,15.78-35.43,15.78-23.1,0-39.08-19.26-39.08-42.36v-.39c0-23.1,16.36-41.97,39.08-41.97,13.47,0,24.07,5.78,34.46,15.21l18.87-21.76c-12.52-12.32-27.72-20.79-53.14-20.79-41.39,0-70.27,31.38-70.27,69.69v.39c0,38.69,29.45,69.31,69.11,69.31,25.99,0,41.4-9.24,55.26-24.07l-18.87-19.05Z"/>
      </g>
      <g>
        <path class="cls-1" d="M541.42,339.75v-.19c0-14.37,10.24-26.2,24.89-26.2,16.81,0,24.51,13.05,24.51,27.33,0,1.13-.09,2.44-.19,3.76h-35.03c1.41,6.48,5.92,9.86,12.3,9.86,4.79,0,8.26-1.5,12.21-5.17l8.17,7.23c-4.7,5.82-11.46,9.39-20.57,9.39-15.12,0-26.3-10.61-26.3-26.01ZM576.92,335.52c-.85-6.39-4.6-10.71-10.61-10.71s-9.77,4.23-10.89,10.71h21.51Z"/>
        <path class="cls-1" d="M598.51,339.75v-.19c0-14.37,10.99-26.2,26.39-26.2,9.49,0,15.4,3.19,20.1,8.45l-8.73,9.39c-3.19-3.38-6.39-5.54-11.46-5.54-7.14,0-12.21,6.29-12.21,13.71v.19c0,7.7,4.98,13.9,12.77,13.9,4.79,0,8.08-2.07,11.55-5.35l8.36,8.45c-4.88,5.35-10.52,9.2-20.57,9.2-15.12,0-26.2-11.65-26.2-26.01Z"/>
        <path class="cls-1" d="M652.5,346.88v-32.59h14.28v28.08c0,6.76,3.19,10.24,8.64,10.24s8.92-3.47,8.92-10.24v-28.08h14.28v50.34h-14.28v-7.14c-3.29,4.23-7.51,8.08-14.74,8.08-10.8,0-17.09-7.14-17.09-18.69Z"/>
        <path class="cls-1" d="M707.83,314.3h14.28v10.14c2.91-6.95,7.61-11.46,16.06-11.08v14.93h-.75c-9.49,0-15.31,5.73-15.31,17.75v18.59h-14.28v-50.34Z"/>
        <path class="cls-1" d="M754.15,294.44h.71c3.95,0,7.16,3.21,7.16,7.16h0c0,3.95-3.21,7.16-7.16,7.16h-.71c-3.95,0-7.16-3.21-7.16-7.16h0c0-3.95,3.21-7.16,7.16-7.16ZM747.37,314.3h14.27v50.34h-14.27v-50.34Z"/>
        <path class="cls-1" d="M777.05,350.36v-23.85h-6.01v-12.21h6.01v-12.87h14.27v12.87h11.83v12.21h-11.83v21.51c0,3.29,1.41,4.88,4.6,4.88,2.63,0,4.98-.66,7.04-1.78v11.46c-3.01,1.78-6.48,2.91-11.27,2.91-8.73,0-14.65-3.47-14.65-15.12Z"/>
        <path class="cls-1" d="M813.39,376.47l4.79-10.33c1.88,1.13,4.23,1.97,6.1,1.97,2.44,0,3.76-.75,4.98-3.29l-19.72-50.53h15.12l11.46,34.28,10.99-34.28h14.84l-19.35,51.56c-3.85,10.24-7.98,14.09-16.53,14.09-5.17,0-9.02-1.31-12.68-3.47Z"/>
        <path class="cls-1" d="M532.29,353.2c-2.52,5.46-6.66,9.24-11.99,11-2.45.8-5.02,1.13-7.58,1.13-10.3,0-20.55-5.37-23.07-6.79l10.12-10.55c4.73,2.06,11.81,4.34,16.47,2.8,1.75-.58,2.93-1.66,3.81-3.5.15-.39.82-2.45-.07-4.52-.97-2.27-3.7-4.27-7.88-5.77-6.2-2.24-25.07-9.05-23.08-27.23.79-7.2,5.96-13.83,13.17-16.93,8.46-3.61,18.28-1.75,27.17,5.09l-9.69,10.11c-4.46-2.94-8.78-3.73-12.36-2.19-2.91,1.25-4.7,3.77-4.89,5.51-.23,2.1-.77,7,14.09,12.35,8.08,2.92,13.44,7.52,15.94,13.7,3.19,7.9.2,14.99-.16,15.77Z"/>
      </g>
    </g>
    <g>
      <path class="cls-1" d="M497.97,397.98h10.98v39.97h24.89v10h-35.87v-49.97Z"/>
      <path class="cls-1" d="M540.1,436.95v-.14c0-8.35,6.34-12.21,15.4-12.21,3.85,0,6.63.64,9.34,1.57v-.64c0-4.49-2.78-6.99-8.2-6.99-4.13,0-7.06.79-10.55,2.07l-2.71-8.28c4.21-1.85,8.34-3.07,14.83-3.07,5.92,0,10.2,1.57,12.91,4.28,2.85,2.86,4.14,7.07,4.14,12.21v22.2h-10.48v-4.14c-2.64,2.93-6.28,4.85-11.55,4.85-7.2,0-13.12-4.14-13.12-11.7ZM564.99,434.45v-1.93c-1.85-.86-4.28-1.43-6.92-1.43-4.64,0-7.49,1.85-7.49,5.28v.14c0,2.93,2.42,4.64,5.92,4.64,5.06,0,8.49-2.78,8.49-6.71Z"/>
      <path class="cls-1" d="M595.42,442.95v5h-10.84v-52.11h10.84v19.34c2.64-3.57,6.28-6.21,11.91-6.21,8.91,0,17.4,7,17.4,19.78v.14c0,12.78-8.34,19.77-17.4,19.77-5.78,0-9.34-2.64-11.91-5.71ZM613.89,428.89v-.14c0-6.35-4.27-10.56-9.34-10.56s-9.27,4.21-9.27,10.56v.14c0,6.35,4.21,10.56,9.27,10.56s9.34-4.14,9.34-10.56Z"/>
    </g>
  </g>
</svg>